<svg width="180" height="65" viewBox="0 0 180 65" fill="none" xmlns="http://www.w3.org/2000/svg">
<g clip-path="url(#clip0)">
<path d="M59.9766 50.6722C58.9927 50.385 58.0904 49.8756 57.3412 49.1845C56.7211 48.5724 56.3731 47.7425 56.3738 46.8775C56.3745 46.0125 56.7237 45.1831 57.3447 44.5719C57.9657 43.9607 58.8076 43.6177 59.6852 43.6184C60.5628 43.619 61.4041 43.9633 62.0242 44.5754C62.3649 44.8894 62.6197 45.2832 62.7648 45.7202L61.9748 46.0284C61.8489 45.7017 61.6523 45.406 61.3989 45.1617C61.0575 44.8287 60.6239 44.6028 60.1525 44.5123C59.6811 44.4218 59.1932 44.4709 58.75 44.6532C58.3069 44.8356 57.9284 45.1431 57.6622 45.5371C57.396 45.9311 57.2541 46.3939 57.2542 46.8672C57.2484 47.1817 57.3079 47.494 57.4292 47.785C57.5505 48.0759 57.731 48.3393 57.9595 48.5588C58.4983 49.053 59.1184 49.4534 59.7932 49.743C60.9799 50.1022 62.0613 50.7381 62.9458 51.5968C63.3831 52.0119 63.7292 52.5112 63.9626 53.0638C64.1959 53.6163 64.3116 54.2102 64.3022 54.8086C64.3053 55.7115 64.0358 56.5948 63.5281 57.3463C63.0204 58.0978 62.2973 58.6835 61.451 59.0288C60.6046 59.3741 59.6732 59.4635 58.7752 59.2856C57.8772 59.1077 57.0531 58.6705 56.4079 58.0296C55.7111 57.3658 55.2551 56.4945 55.1102 55.5501L55.94 55.2512C56.0118 55.8371 56.2245 56.3977 56.5603 56.8863C56.8961 57.3749 57.3454 57.7774 57.8708 58.0603C58.3963 58.3433 58.9826 58.4986 59.5812 58.5132C60.1797 58.5278 60.7732 58.4014 61.3122 58.1444C61.8512 57.8875 62.3202 57.5074 62.6801 57.0358C63.0401 56.5642 63.2806 56.0147 63.3818 55.433C63.4829 54.8513 63.4417 54.2542 63.2616 53.6914C63.0815 53.1285 62.7677 52.6162 62.3463 52.197C61.6672 51.5395 60.8615 51.0226 59.9766 50.6768" fill="#231F20"/>
<path d="M75.5677 43.8061H76.4563V54.8665C76.3104 56.0016 75.7812 57.0553 74.9541 57.8581C74.2409 58.5586 73.3332 59.0354 72.3456 59.2282C71.3579 59.421 70.3344 59.3213 69.4041 58.9417C68.4739 58.562 67.6785 57.9193 67.1182 57.0947C66.5579 56.2701 66.2578 55.3005 66.2557 54.308V43.8061H67.1444V54.308C67.1704 55.3915 67.6252 56.4219 68.4118 57.1791C69.1984 57.9363 70.2542 58.3602 71.3537 58.3602C72.4531 58.3602 73.509 57.9363 74.2956 57.1791C75.0821 56.4219 75.537 55.3915 75.563 54.308L75.5677 43.8061Z" fill="#231F20"/>
<path d="M80.2626 53.8561V59.1859H79.3834V43.8061H83.481C84.6314 43.9474 85.7003 44.4656 86.516 45.2775C87.2266 45.9804 87.7102 46.8749 87.9059 47.8482C88.1016 48.8215 88.0006 49.8302 87.6157 50.7471C87.2308 51.6639 86.5793 52.448 85.743 53.0005C84.9068 53.5529 83.9234 53.849 82.9168 53.8515L80.2626 53.8561ZM80.2626 44.682V52.9825H82.9168C84.0335 52.9825 85.1044 52.5453 85.894 51.7669C86.6837 50.9886 87.1273 49.933 87.1273 48.8323C87.1273 47.7315 86.6837 46.6759 85.894 45.8976C85.1044 45.1193 84.0335 44.682 82.9168 44.682H80.2626Z" fill="#231F20"/>
<path d="M97.8144 43.8061V44.6727H90.8886V51.0685H97.8144V51.9328H90.8886V58.3285H97.8144V59.1952H90.0093V43.8061H97.8144Z" fill="#231F20"/>
<path d="M104.294 53.8469C104.209 53.8469 104.122 53.8469 104.03 53.8469H101.376V59.1766H100.499V43.8061H104.597C105.747 43.9474 106.816 44.4656 107.632 45.2775C108.267 45.9091 108.722 46.695 108.95 47.5555C109.178 48.416 109.171 49.3206 108.93 50.1777C108.689 51.0349 108.223 51.8141 107.579 52.4364C106.934 53.0588 106.134 53.5022 105.26 53.7218L108.859 59.1952H107.778L104.294 53.8469ZM101.376 44.682V52.9825H104.03C105.147 52.9825 106.218 52.5453 107.007 51.7669C107.797 50.9886 108.241 49.933 108.241 48.8323C108.241 47.7315 107.797 46.6759 107.007 45.8976C106.218 45.1193 105.147 44.682 104.03 44.682H101.376Z" fill="#231F20"/>
<path d="M112.129 43.8061L117.992 53.8098L123.848 43.8061H124.852L124.812 43.8733V59.1952H123.935V45.3749L117.992 55.5107L112.042 45.3749V59.1952H111.163V43.8733L111.125 43.8061H112.129Z" fill="#231F20"/>
<path d="M135.321 53.2977H129.914L127.739 59.1952H126.799L132.615 43.4376L138.419 59.1952H137.488L135.321 53.2977ZM135.001 52.4333L132.62 45.9797L130.238 52.4287L135.001 52.4333Z" fill="#231F20"/>
<path d="M144.172 53.8469C144.087 53.8469 144 53.8469 143.909 53.8469H141.25V59.1766H140.371V43.8061H144.471C145.62 43.9479 146.688 44.4661 147.503 45.2775C148.139 45.909 148.593 46.6946 148.821 47.555C149.05 48.4154 149.043 49.3199 148.803 50.177C148.562 51.034 148.096 51.8133 147.452 52.4358C146.807 53.0582 146.008 53.5019 145.134 53.7218L148.733 59.1952H147.651L144.172 53.8469ZM141.25 44.682V52.9825H143.904C145.021 52.9825 146.092 52.5453 146.881 51.7669C147.671 50.9886 148.115 49.933 148.115 48.8323C148.115 47.7315 147.671 46.6759 146.881 45.8976C146.092 45.1193 145.021 44.682 143.904 44.682H141.25Z" fill="#231F20"/>
<path d="M151.881 51.7405V59.1952H151.001V43.8061H151.881V50.3547L156.865 43.8061H157.998L153.315 50.0002L159.364 59.1952H158.28L152.739 50.693L151.881 51.7405Z" fill="#231F20"/>
<path d="M169.51 43.8061V44.6727H162.584V51.0685H169.51V51.9328H162.584V58.3285H169.51V59.1952H161.705V43.8061H169.51Z" fill="#231F20"/>
<path d="M176.048 44.6727V59.1952H175.171V44.6727H171.219V43.8061H180V44.6727H176.048Z" fill="#231F20"/>
<path fill-rule="evenodd" clip-rule="evenodd" d="M166.198 19.5857C166.184 18.7455 166.346 17.9114 166.672 17.135C166.998 16.3586 167.483 15.6564 168.095 15.0717C168.673 14.4611 169.373 13.9766 170.152 13.6493C170.932 13.3221 171.771 13.1593 172.618 13.1715C174.406 13.1715 175.885 13.7469 177.054 14.8979C178.183 16.0287 178.746 17.3133 178.745 18.7515V18.8952L176.615 19.7294C176.441 18.3684 176.013 17.3426 175.331 16.652C174.649 15.9615 173.745 15.6263 172.618 15.6463C172.096 15.6406 171.577 15.7405 171.095 15.9398C170.613 16.139 170.178 16.4335 169.816 16.805C169.437 17.1653 169.135 17.5973 168.929 18.0751C168.723 18.5528 168.617 19.0666 168.617 19.5857C168.617 20.1049 168.723 20.6186 168.929 21.0964C169.135 21.5742 169.437 22.0062 169.816 22.3665C170.266 22.8299 171.229 23.5105 172.705 24.408C175.04 25.6733 176.704 26.7948 177.696 27.7727C178.439 28.4916 179.027 29.3516 179.423 30.3008C179.819 31.25 180.015 32.2686 180 33.2948C180.018 34.3341 179.823 35.3663 179.427 36.3297C179.031 37.2931 178.442 38.1682 177.696 38.9027C176.957 39.6321 176.079 40.2108 175.113 40.6056C174.146 41.0005 173.111 41.2037 172.065 41.2037C171.019 41.2037 169.983 41.0005 169.016 40.6056C168.05 40.2108 167.172 39.6321 166.433 38.9027C164.877 37.3578 164.098 35.6708 164.098 33.8417L166.52 33.2091C166.5 33.9487 166.638 34.6843 166.924 35.3681C167.211 36.0519 167.64 36.6687 168.184 37.1786C168.687 37.6893 169.291 38.093 169.958 38.3649C170.625 38.6367 171.342 38.7708 172.063 38.759C172.789 38.7657 173.509 38.6293 174.18 38.3579C174.851 38.0865 175.461 37.6855 175.973 37.1786C176.495 36.6736 176.908 36.0685 177.184 35.4006C177.46 34.7326 177.594 34.016 177.579 33.2948C177.59 32.5829 177.453 31.8762 177.177 31.2182C176.901 30.5603 176.491 29.965 175.973 29.469C175.39 28.8943 174.214 28.0508 172.447 26.9385C170.346 25.8077 168.898 24.8491 168.1 24.0627C167.488 23.489 167.004 22.7967 166.678 22.0293C166.351 21.262 166.189 20.4363 166.203 19.6043L166.198 19.5857ZM156.837 22.8253V40.5433H154.387V23.0385C154.406 21.9642 154.198 20.8977 153.776 19.9071C153.353 18.9165 152.726 18.0234 151.935 17.2847C151.168 16.5124 150.25 15.9005 149.238 15.4856C148.225 15.0707 147.138 14.8614 146.041 14.8701C144.958 14.8564 143.882 15.0582 142.88 15.4636C141.877 15.8689 140.968 16.4694 140.206 17.2291C139.381 18.0125 138.708 18.9385 138.222 19.9611V40.5248H135.77V14.0358H138.222V15.7321C140.457 13.5477 143.063 12.4547 146.041 12.4531C149.212 12.4531 151.789 13.431 153.773 15.3868C155.757 17.3426 156.776 19.8144 156.829 22.8021L156.837 22.8253ZM116.946 11.6444C120.506 11.6444 123.618 12.6988 126.284 14.8075C126.712 15.1535 127.149 15.5467 127.596 15.987C127.751 16.1399 127.909 16.3021 128.066 16.4759L108.69 35.5727C110.935 37.617 113.893 38.7292 116.949 38.6779C118.582 38.7034 120.203 38.4008 121.713 37.7884C123.224 37.1761 124.592 36.2668 125.734 35.1162C126.047 34.8072 126.339 34.4913 126.608 34.1685L129.194 35.0954C128.709 35.7493 128.172 36.3646 127.589 36.9353C124.652 39.8319 121.102 41.2794 116.939 41.2779C112.776 41.2764 109.236 39.8288 106.318 36.9353C103.381 34.0402 101.912 30.5512 101.912 26.4681C101.912 22.385 103.381 18.8952 106.318 15.9986C109.261 13.0958 112.804 11.6444 116.946 11.6444ZM104.545 26.4565C104.502 29.1074 105.377 31.6935 107.025 33.7884L124.387 16.6405C122.538 15.2921 120.347 14.4751 118.056 14.2802C115.765 14.0852 113.464 14.52 111.409 15.5361C109.353 16.5523 107.624 18.1101 106.412 20.0366C105.2 21.9631 104.554 24.1829 104.545 26.4496V26.4565ZM74.1408 15.9916C77.0794 13.0935 80.6199 11.6444 84.7622 11.6444C88.3215 11.6444 91.4341 12.6988 94.1001 14.8075C94.5279 15.1535 94.9652 15.5467 95.4119 15.987C95.567 16.1399 95.7245 16.3021 95.882 16.4759L76.5058 35.5774C78.7495 37.6219 81.7071 38.7342 84.7622 38.6825C86.3952 38.7074 88.0162 38.404 89.5263 37.7908C91.0364 37.1777 92.4038 36.2676 93.5452 35.1162C93.8528 34.815 94.1447 34.4987 94.4198 34.1685L97.0175 35.0954C96.5322 35.7493 95.9953 36.3646 95.4119 36.9353C92.4748 39.8319 88.9249 41.2794 84.7622 41.2779C80.5995 41.2764 77.0591 39.8288 74.1408 36.9353C71.2037 34.0402 69.7352 30.5512 69.7352 26.4681C69.7352 22.385 71.2037 18.8952 74.1408 15.9986V15.9916ZM66.0207 13.431V16.0774C64.4644 16.1361 62.8596 16.9896 61.2061 18.638C60.0783 19.7042 59.1756 20.9797 58.5498 22.3911C57.9241 23.8025 57.5876 25.322 57.5598 26.862V40.534H55.1172V14.0358H57.5692V18.8674C58.1007 18.1275 58.6961 17.4344 59.3488 16.7957C61.5274 14.6499 63.7545 13.5283 66.0301 13.431H66.0207ZM92.2029 16.652C89.8107 14.8856 86.8523 14.0293 83.871 14.2404C80.8897 14.4515 78.0858 15.7159 75.9744 17.8013C73.863 19.8868 72.586 22.6531 72.3778 25.5922C72.1697 28.5312 73.0444 31.4457 74.8414 33.8L92.2029 16.652ZM48.9907 13.7485V43.8037C48.9907 48.1742 47.7941 52.0757 45.4009 55.5084C44.6007 56.6288 43.7023 57.678 42.7161 58.6437C38.4375 62.8812 33.2733 65 27.2236 65C21.1739 65 16.009 62.8812 11.7287 58.6437C10.8584 57.8072 10.0581 56.9029 9.33551 55.9394L13.1581 54.6162C13.5672 55.0797 13.995 55.5308 14.4417 55.9695C17.9634 59.4594 22.224 61.2043 27.2236 61.2043C32.2232 61.2043 36.4831 59.4594 40.0032 55.9695C43.2333 52.8072 45.0357 49.03 45.4103 44.638V13.7485H48.9907Z" fill="#231F20"/>
<path d="M-1.52588e-05 0C1.43874 7.61307 6.17505 12.2816 14.2089 14.0057C11.7781 6.14546 7.04175 1.47689 -1.52588e-05 0Z" fill="#76AB42"/>
<path d="M27.2517 44.3784C23.8523 44.3789 20.529 43.3857 17.7022 41.5244C14.8754 39.6631 12.6721 37.0173 11.3708 33.9216C10.0696 30.826 9.7289 27.4195 10.3918 24.133C11.0547 20.8465 12.6915 17.8275 15.0951 15.4579C17.4988 13.0884 20.5613 11.4746 23.8954 10.8207C27.2295 10.1668 30.6855 10.5022 33.8262 11.7844C36.967 13.0666 39.6514 15.2381 41.5401 18.0242C43.4288 20.8103 44.4369 24.0859 44.4369 27.4367C44.4319 31.928 42.6198 36.234 39.3981 39.4101C36.1764 42.5861 31.8082 44.3729 27.2517 44.3784ZM27.2517 14.0914C24.5733 14.091 21.9549 14.8735 19.7277 16.34C17.5005 17.8064 15.7645 19.891 14.7393 22.3301C13.7141 24.7691 13.4458 27.4531 13.9682 30.0425C14.4906 32.6319 15.7803 35.0104 17.6743 36.8772C19.5682 38.744 21.9812 40.0153 24.6082 40.5303C27.2352 41.0452 29.958 40.7807 32.4325 39.7702C34.9069 38.7596 37.0217 37.0485 38.5095 34.8531C39.9973 32.6578 40.7911 30.0768 40.7906 27.4367C40.7863 23.8987 39.3585 20.5067 36.8204 18.0049C34.2823 15.5031 30.8411 14.0957 27.2517 14.0914Z" fill="#231F20"/>
</g>
<defs>
<clipPath id="clip0">
<rect width="180" height="65" fill="white"/>
</clipPath>
</defs>
</svg>
